<?xml version="1.0" encoding="utf-8"?>
<!-- Generator: Adobe Illustrator 26.0.1, SVG Export Plug-In . SVG Version: 6.00 Build 0)  -->
<svg version="1.1" id="Camada_1" xmlns="http://www.w3.org/2000/svg" xmlns:xlink="http://www.w3.org/1999/xlink" x="0px" y="0px"
	 viewBox="0 0 1080 622.3" style="enable-background:new 0 0 1080 622.3;" xml:space="preserve">
<style type="text/css">
	.st0{fill:#FFFFFF;}
</style>
<g>
	<g>
		<g>
			<path class="st0" d="M108.9,548.7c-35.6,0-48.3-2.2-108.9-2.2v-3.3l11.6-1.5c13.4-1.8,16-3.6,17.8-10.9
				c1.5-5.8,2.2-20.7,2.2-38.1V357.8c0-17.4-0.7-32.3-2.2-38.1c-1.8-7.3-4.4-9.1-17.8-10.9L0,307.3V304h107.5
				c94.8,0,151.8,40.3,151.8,119.5C259.2,477.9,218.9,548.7,108.9,548.7z M89,338.9v158.3c0,18.9,0.4,31.2,1.8,37c1.4,5.4,4,8,16,8
				h3.3c25.1,0,42.8-6.9,58.1-22.1c20.7-20.7,30.1-53.7,30.1-90c0-55.2-20.3-92.6-54.1-109.3c-17.8-9.1-34.5-10.9-54.5-11.3
				C89,314.2,89,322.5,89,338.9z"/>
		</g>
		<g>
			<path class="st0" d="M355.9,536.8c-49.4,0-78.8-38.9-78.8-84.6c0-53,36.7-93.7,85.3-93.7c42.5,0,67.5,24.7,67.5,53.7
				c0,5.1-0.7,8.4-1.5,10.5l-103.1-0.4c0,2.2,0,4.4,0,6.5c0,48.7,23.6,72.6,58.1,72.6c20.7,0,36.3-8.4,47.2-20l1.4,1.1
				C418,515.8,391.1,536.8,355.9,536.8z M325.8,417.7c38.8-0.7,54.8-2.2,59.2-4c0.7-24.3-8.4-48.7-25.4-48.7
				c-5.4,0-11.6,2.2-17.1,7.6C333,382.2,327.6,398.5,325.8,417.7z"/>
		</g>
		<g>
			<path class="st0" d="M504.4,616c-40.7,0-63.9-16.7-63.9-38.8c0-14.2,10.5-28.3,35.9-38.1c-6.9-1.8-13.4-5.1-18.5-9.8
				c-6.9-7.3-10.5-15.6-10.5-25.8c0-14.9,16-26.9,33.4-36.7c-20-10.2-31.2-28.3-31.2-49c0-33.8,27.2-58.5,70.1-58.5
				c21.1,0,35.6,6.2,52.6,6.2c11.3,0,23.6-2.9,40.7-8.4c4,4.7,5.8,10.9,5.8,16.3c0,9.8-6.2,15.6-15.3,15.6s-17.8-5.1-27.6-10.9
				l-7.3-4.4l-1.1,1.5c15.2,13.4,20.7,28,20.7,41.4c0,34.1-26.9,58.8-69.3,58.8c-13.1,0-24.7-2.5-34.5-6.9c-5.4,4.7-8.3,10.9-8.3,16
				c0,6.2,3.6,10.9,19.2,10.9c12.7,0,29-0.4,49-0.4c28,0,46.5,2.9,57,13.8c7.6,7.3,11.3,18.5,11.3,28.3c0,19.2-10.2,32.7-21.8,44.3
				C570.2,602.2,540.4,616,504.4,616z M587.9,564.1c0-6.5-1.8-12-5.4-15.6c-6.5-6.5-17.8-8.7-51.2-8.7c-15.3,0-30.1,0.4-44.3,0.4
				c-1.8,0-3.6,0-5.4-0.4c-3.3,4.4-5.8,9.8-5.8,16.7c0,22.9,22.9,38.1,57.7,38.1C574.5,594.6,587.9,580,587.9,564.1z M495.7,413.4
				c0,33,10.2,56.3,26.9,56.3c15.2,0,20.3-17.4,20.3-45c0-33-6.5-60.3-24-60.3C505.2,364.4,495.7,386.5,495.7,413.4z"/>
		</g>
		<g>
			<path class="st0" d="M761.5,379.6c0,13.1-5.8,25.1-14.9,33.8c-17.4-9.4-28.7-12.3-35.2-12.3c-9.1,0-13.8,5.4-18.5,13.4V519
				c0,5.8,1.1,6.9,10.2,8l12,1.1v2.9h-89.3v-2.9l5.8-1.1c8.7-1.5,9.8-2.5,9.8-8.4V405c0-6.2-0.7-10.2-4-13.4l-10.5-12v-1.1
				l67.5-22.9l0.7,1.1c-0.7,10.2-1.1,16.7-1.5,22.5l-1.5,26.1l1.8,0.7c11.3-30.5,28.7-49,46.1-49
				C754.2,357.1,761.5,367.3,761.5,379.6z"/>
		</g>
		<g>
			<path class="st0" d="M839.2,536.8c-49.4,0-78.8-38.9-78.8-84.6c0-53,36.7-93.7,85.3-93.7c42.5,0,67.5,24.7,67.5,53.7
				c0,5.1-0.7,8.4-1.5,10.5l-103.1-0.4c0,2.2,0,4.4,0,6.5c0,48.7,23.6,72.6,58.1,72.6c20.7,0,36.3-8.4,47.2-20l1.4,1.1
				C901.3,515.8,874.4,536.8,839.2,536.8z M809.1,417.7c38.8-0.7,54.8-2.2,59.2-4c0.7-24.3-8.4-48.7-25.4-48.7
				c-5.4,0-11.6,2.2-17.1,7.6C816.3,382.2,810.9,398.5,809.1,417.7z"/>
		</g>
		<g>
			<path class="st0" d="M1003.8,536.8c-49.4,0-78.8-38.9-78.8-84.6c0-53,36.7-93.7,85.3-93.7c42.5,0,67.5,24.7,67.5,53.7
				c0,5.1-0.7,8.4-1.5,10.5l-103.1-0.4c0,2.2,0,4.4,0,6.5c0,48.7,23.6,72.6,58.1,72.6c20.7,0,36.3-8.4,47.2-20l1.4,1.1
				C1065.8,515.8,1039,536.8,1003.8,536.8z M973.6,417.7c38.8-0.7,54.8-2.2,59.2-4c0.7-24.3-8.4-48.7-25.4-48.7
				c-5.4,0-11.6,2.2-17.1,7.6C980.9,382.2,975.4,398.5,973.6,417.7z"/>
		</g>
	</g>
	<g>
		<g>
			<path class="st0" d="M415.3,254.6c-49.4,0-78.8-38.9-78.8-84.6c0-53,36.7-93.7,85.3-93.7c42.5,0,67.5,24.7,67.5,53.7
				c0,5.1-0.7,8.4-1.5,10.5l-103.1-0.4c0,2.2,0,4.4,0,6.5c0,48.7,23.6,72.6,58.1,72.6c20.7,0,36.3-8.4,47.2-20l1.4,1.1
				C477.4,233.6,450.5,254.6,415.3,254.6z M385.2,135.5c38.8-0.7,54.8-2.2,59.2-4c0.7-24.3-8.4-48.7-25.4-48.7
				c-5.4,0-11.6,2.2-17.1,7.6C392.4,99.9,387,116.3,385.2,135.5z"/>
		</g>
		<g>
			<path class="st0" d="M656.8,86.5c6.9,7.3,10.9,14.9,10.9,36.7v113.6c0,5.8,1.1,6.5,10.2,8l5.4,1.1v2.9h-81v-2.9l5.4-1.1
				c7.6-1.1,8.7-2.5,8.7-8V145c0-15.3-1.4-26.1-6.5-31.6c-4.7-4.4-10.2-5.8-18.2-5.8c-8,0-15.6,2.5-23.6,6.5v122.7
				c0,5.4,1.1,6.9,8.4,8l5.8,1.1v2.9H501v-2.9l5.8-1.1c8.7-1.5,9.8-2.5,9.8-8.4V122.8c0-6.2-1.1-10.2-4-13.4l-10.5-12v-1.1
				l67.5-22.9l0.7,1.1c-0.7,9.8-1.5,19.2-1.5,23.2l-0.4,10.5l1.4,0.7c22.5-22.9,40.7-32.7,59.9-32.7
				C640.4,76.3,650.2,80.3,656.8,86.5z"/>
		</g>
		<g>
			<path class="st0" d="M751.2,186.7c-28-17.4-48.3-30.5-48.3-59.2s26.1-50.5,63.5-50.5c20.3,0,37.8,5.1,47.2,9.1
				c1.1,6.9,2.5,33.8,2.5,42.8l-2.5,0.7C788.2,91.6,776.2,84,763.5,84c-14.2,0-21.1,9.1-21.1,20c0,14.9,11.3,23.6,28.7,34.1
				c33.4,19.6,53.4,34.5,53.4,61.7c0,33.4-29.4,54.1-68.6,54.1c-18.5,0-38.1-3.3-53-9.4c-2.2-12.7-5.1-38.5-5.4-53.7l2.5-0.7
				c26.1,39.2,43.9,57,63.2,57c13.4,0,21.8-8.4,21.8-21.8C785,210,773.3,200.2,751.2,186.7z"/>
		</g>
		<g>
			<path class="st0" d="M919.3,254.6c-49.4,0-78.8-38.9-78.8-84.6c0-53,36.7-93.7,85.3-93.7c42.5,0,67.5,24.7,67.5,53.7
				c0,5.1-0.7,8.4-1.5,10.5l-103.1-0.4c0,2.2,0,4.4,0,6.5c0,48.7,23.6,72.6,58.1,72.6c20.7,0,36.3-8.4,47.2-20l1.4,1.1
				C981.4,233.6,954.5,254.6,919.3,254.6z M889.2,135.5c38.8-0.7,54.8-2.2,59.2-4c0.7-24.3-8.4-48.7-25.4-48.7
				c-5.4,0-11.6,2.2-17.1,7.6C896.4,99.9,891,116.3,889.2,135.5z"/>
		</g>
		<g>
			<path class="st0" d="M317,169.7c-3.2,8.8-6.2,14.8-10.9,22.3c-19.3,31-55.5,38.7-93.5,38.2c-8-0.3-13.1-2.6-13.9-13.6
				c-0.2-5.8-0.2-13-0.2-21.9V60c0-17.4,0.7-32.3,2.2-38.1c1.8-7.3,4.4-9.1,17.4-10.9l12-1.5V6.3H108.9v3.3l11.6,1.5
				c13.4,1.8,16,3.6,17.8,10.9c1.5,5.8,2.2,20.7,2.2,38.1v135.1c0,17.4-0.7,32.3-2.2,38.1c-1.8,7.3-4.4,9.1-17.8,10.9l-11.6,1.5v3.3
				h177.2h4.5c6.1,0,11.9-3,15.3-8.1v0c1.8-2.7,2.6-5.6,3.3-8.8l12.8-62.1L317,169.7z"/>
		</g>
	</g>
</g>
</svg>
