<?xml version="1.0" encoding="utf-8"?>
<!-- Generator: Adobe Illustrator 26.0.1, SVG Export Plug-In . SVG Version: 6.00 Build 0)  -->
<svg version="1.1" id="Camada_1" xmlns="http://www.w3.org/2000/svg" xmlns:xlink="http://www.w3.org/1999/xlink" x="0px" y="0px"
	 viewBox="0 0 2180 369.4" style="enable-background:new 0 0 2180 369.4;" xml:space="preserve">
<style type="text/css">
	.st0{fill:#1A1A1A;}
</style>
<g>
	<g>
		<path class="st0" d="M1116.8,53.9v164.8c0,19.7,0.4,32.5,1.9,38.6c1.5,5.7,4.2,8.3,16.6,8.3h3.4c26.1,0,44.6-7.2,60.5-23.1
			c21.6-21.6,31.4-56,31.4-93.8c0-57.5-21.2-96.4-56.3-113.8c-18.5-9.4-35.9-11.3-56.7-11.7C1116.8,28.2,1116.8,36.9,1116.8,53.9
			L1116.8,53.9z M1137.6,272.4c-37,0-50.3-2.3-113.4-2.3v-3.4l12.1-1.5c14-1.9,16.6-3.8,18.5-11.3c1.5-6.1,2.3-21.6,2.3-39.7V73.6
			c0-18.1-0.8-33.6-2.3-39.7c-1.9-7.6-4.5-9.5-18.5-11.3l-12.1-1.5v-3.4h111.9c98.7,0,158,42,158,124.4
			C1294.1,198.7,1252.2,272.4,1137.6,272.4L1137.6,272.4z"/>
	</g>
	<g>
		<path class="st0" d="M1361,149c40.5-0.8,57.1-2.3,61.6-4.2c0.8-25.3-8.7-50.7-26.5-50.7c-5.7,0-12.1,2.3-17.8,7.9
			C1368.6,112,1362.9,129,1361,149L1361,149z M1392.4,273c-51.4,0-82-40.5-82-88.1c0-55.2,38.2-97.5,88.8-97.5
			c44.2,0,70.3,25.7,70.3,56c0,5.3-0.8,8.7-1.5,11l-107.4-0.4c0,2.3,0,4.5,0,6.8c0,50.7,24.6,75.6,60.5,75.6
			c21.5,0,37.8-8.7,49.1-20.8l1.5,1.1C1457,251.1,1429.1,273,1392.4,273L1392.4,273z"/>
	</g>
	<g>
		<path class="st0" d="M1538,144.5c0,34.4,10.6,58.6,28,58.6c15.9,0,21.2-18.1,21.2-46.9c0-34.4-6.8-62.8-25-62.8
			C1547.8,93.4,1538,116.5,1538,144.5L1538,144.5z M1634,301.4c0-6.8-1.9-12.5-5.7-16.3c-6.8-6.8-18.5-9.1-53.3-9.1
			c-15.9,0-31.4,0.4-46.1,0.4c-1.9,0-3.8,0-5.7-0.4c-3.4,4.5-6,10.2-6,17.4c0,23.8,23.8,39.7,60.1,39.7
			C1620,333.1,1634,318,1634,301.4L1634,301.4z M1547,355.4c-42.3,0-66.5-17.4-66.5-40.4c0-14.7,11-29.5,37.4-39.7
			c-7.2-1.9-14-5.3-19.3-10.2c-7.2-7.6-11-16.3-11-26.8c0-15.5,16.6-28,34.8-38.2c-20.8-10.6-32.5-29.5-32.5-51
			c0-35.2,28.4-60.9,73-60.9c21.9,0,37,6.4,54.8,6.4c11.7,0,24.6-3,42.3-8.7c4.2,4.9,6.1,11.3,6.1,17c0,10.2-6.4,16.3-15.9,16.3
			c-9.5,0-18.5-5.3-28.7-11.3l-7.6-4.5l-1.1,1.5c15.9,14,21.5,29.1,21.5,43.1c0,35.5-28,61.2-72.2,61.2c-13.6,0-25.7-2.6-35.9-7.2
			c-5.7,4.9-8.7,11.3-8.7,16.6c0,6.4,3.8,11.3,20,11.3c13.2,0,30.2-0.4,51-0.4c29.1,0,48.4,3,59.4,14.4c7.9,7.6,11.7,19.3,11.7,29.5
			c0,20-10.6,34-22.7,46.1C1615.5,341.1,1584.5,355.4,1547,355.4L1547,355.4z"/>
	</g>
	<g>
		<path class="st0" d="M1814.7,109.3c0,13.6-6.1,26.1-15.5,35.2c-18.1-9.8-29.9-12.9-36.7-12.9c-9.5,0-14.4,5.7-19.3,14v108.9
			c0,6,1.1,7.2,10.6,8.3l12.5,1.1v3h-93v-3l6-1.1c9.1-1.5,10.2-2.6,10.2-8.7V135.8c0-6.4-0.8-10.6-4.2-14l-11-12.5v-1.1l70.3-23.8
			l0.8,1.1c-0.8,10.6-1.1,17.4-1.5,23.4l-1.5,27.2l1.9,0.8c11.7-31.8,29.9-51,48-51C1807.1,85.9,1814.7,96.5,1814.7,109.3
			L1814.7,109.3z"/>
	</g>
	<g>
		<path class="st0" d="M1864.2,149c40.4-0.8,57.1-2.3,61.6-4.2c0.8-25.3-8.7-50.7-26.5-50.7c-5.7,0-12.1,2.3-17.8,7.9
			C1871.8,112,1866.1,129,1864.2,149L1864.2,149z M1895.6,273c-51.4,0-82-40.5-82-88.1c0-55.2,38.2-97.5,88.8-97.5
			c44.2,0,70.3,25.7,70.3,56c0,5.3-0.8,8.7-1.5,11l-107.4-0.4c0,2.3,0,4.5,0,6.8c0,50.7,24.6,75.6,60.5,75.6
			c21.5,0,37.8-8.7,49.1-20.8l1.5,1.1C1960.3,251.1,1932.3,273,1895.6,273L1895.6,273z"/>
	</g>
	<g>
		<path class="st0" d="M2035.5,149c40.4-0.8,57.1-2.3,61.6-4.2c0.8-25.3-8.7-50.7-26.5-50.7c-5.7,0-12.1,2.3-17.8,7.9
			C2043.1,112,2037.4,129,2035.5,149L2035.5,149z M2066.9,273c-51.4,0-82-40.5-82-88.1c0-55.2,38.2-97.5,88.8-97.5
			c44.2,0,70.3,25.7,70.3,56c0,5.3-0.8,8.7-1.5,11l-107.4-0.4c0,2.3,0,4.5,0,6.8c0,50.7,24.6,75.6,60.5,75.6
			c21.5,0,37.8-8.7,49.1-20.8l1.5,1.1C2131.6,251.1,2103.6,273,2066.9,273L2066.9,273z"/>
	</g>
	<g>
		<path class="st0" d="M321.4,148.5c40.4-0.8,57.1-2.3,61.6-4.2c0.8-25.3-8.7-50.7-26.5-50.7c-5.7,0-12.1,2.3-17.8,7.9
			C329,111.5,323.3,128.5,321.4,148.5L321.4,148.5z M352.8,272.5c-51.4,0-82-40.5-82-88.1c0-55.2,38.2-97.5,88.8-97.5
			c44.2,0,70.3,25.7,70.3,56c0,5.3-0.8,8.7-1.5,11L321,153.5c0,2.3,0,4.5,0,6.8c0,50.7,24.6,75.6,60.5,75.6
			c21.5,0,37.8-8.7,49.1-20.8l1.5,1.1C417.4,250.6,389.5,272.5,352.8,272.5L352.8,272.5z"/>
	</g>
	<g>
		<path class="st0" d="M604.2,97.5c7.2,7.6,11.3,15.5,11.3,38.2V254c0,6,1.1,6.8,10.6,8.3l5.7,1.1v3h-84.3v-3l5.7-1.1
			c7.9-1.1,9.1-2.6,9.1-8.3v-95.6c0-15.9-1.5-27.2-6.8-32.9c-4.9-4.5-10.6-6-18.9-6c-8.3,0-16.3,2.6-24.6,6.8V254
			c0,5.7,1.1,7.2,8.7,8.3l6,1.1v3H442v-3l6-1.1c9.1-1.5,10.2-2.6,10.2-8.7V135.3c0-6.4-1.1-10.6-4.2-14l-11-12.5v-1.1l70.3-23.8
			l0.8,1.1c-0.8,10.2-1.5,20-1.5,24.2l-0.4,11l1.5,0.8c23.4-23.8,42.3-34,62.4-34C587.2,86.9,597.4,91.1,604.2,97.5L604.2,97.5z"/>
	</g>
	<g>
		<path class="st0" d="M702.5,201.8c-29.1-18.1-50.3-31.8-50.3-61.6c0-29.9,27.2-52.5,66.2-52.5c21.2,0,39.3,5.3,49.1,9.5
			c1.1,7.2,2.6,35.2,2.6,44.6l-2.6,0.8c-26.5-39.7-38.9-47.6-52.2-47.6c-14.7,0-21.9,9.5-21.9,20.8c0,15.5,11.7,24.6,29.9,35.5
			c34.8,20.4,55.6,35.9,55.6,64.3c0,34.8-30.6,56.3-71.5,56.3c-19.3,0-39.7-3.4-55.2-9.8c-2.3-13.2-5.3-40.1-5.7-56l2.6-0.8
			c27.2,40.8,45.7,59.4,65.8,59.4c14,0,22.7-8.7,22.7-22.7C737.7,226,725.6,215.8,702.5,201.8L702.5,201.8z"/>
	</g>
	<g>
		<path class="st0" d="M846.2,148.5c40.5-0.8,57.1-2.3,61.6-4.2c0.8-25.3-8.7-50.7-26.5-50.7c-5.7,0-12.1,2.3-17.8,7.9
			C853.7,111.5,848,128.5,846.2,148.5L846.2,148.5z M877.5,272.5c-51.4,0-82-40.5-82-88.1c0-55.2,38.2-97.5,88.8-97.5
			c44.2,0,70.3,25.7,70.3,56c0,5.3-0.8,8.7-1.5,11l-107.4-0.4c0,2.3,0,4.5,0,6.8c0,50.7,24.6,75.6,60.5,75.6
			c21.5,0,37.8-8.7,49.1-20.8l1.5,1.1C942.2,250.6,914.2,272.5,877.5,272.5L877.5,272.5z"/>
	</g>
	<g>
		<path class="st0" d="M250.5,184.1c-3.3,9.2-6.5,15.4-11.3,23.2c-20.1,32.3-57.8,40.3-97.3,39.8c-8.4-0.3-13.7-2.7-14.5-14.2
			c-0.2-6.1-0.2-13.6-0.2-22.8V69.9c0-18.1,0.8-33.6,2.3-39.7c1.9-7.6,4.5-9.5,18.1-11.3l12.5-1.5V14H33.7v3.4l12.1,1.5
			c14,1.9,16.6,3.8,18.5,11.3c1.5,6.1,2.3,21.5,2.3,39.7v140.6c0,18.1-0.8,33.6-2.3,39.7c-1.9,7.6-4.5,9.5-18.5,11.3l-12.1,1.5v3.4
			h184.5h4.7c6.4,0,12.4-3.2,15.9-8.5l0,0c1.9-2.8,2.8-5.9,3.4-9.1l13.3-64.7L250.5,184.1L250.5,184.1z"/>
	</g>
</g>
</svg>
